# xmcd CD database file
#
# Track frame offsets:
#	150
#	24139
#	39742
#	55290
#	72154
#	88746
#	109901
#	127959
#	145421
#	155282
#	170786
#	189300
#	208571
#
# Disc length: 3076 seconds
#
# Revision: 1
# Processed by: cddbd v1.5.1PL0 Copyright (c) Steve Scherf et al.
# Submitted via: CDex 1.51
#
DISCID=b30c020d
DTITLE=Ann Klein - Waiting For The Snow
DYEAR=2002
DGENRE=Jazz
TTITLE0=Waiting For The Snow
TTITLE1=Someday
TTITLE2=Never Enough
TTITLE3=Real Love
TTITLE4=Happy New Year
TTITLE5=Match Burn Twice
TTITLE6=Cyberspace Lover
TTITLE7=Tell Me Why
TTITLE8=Safe
TTITLE9=Goodbye Charade
TTITLE10=Daze Dream
TTITLE11=I'm In The Moment
TTITLE12=Theater Of War
EXTD=YEAR: 2002
EXTT0=
EXTT1=
EXTT2=
EXTT3=
EXTT4=
EXTT5=
EXTT6=
EXTT7=
EXTT8=
EXTT9=
EXTT10=
EXTT11=
EXTT12=
PLAYORDER=
